# xmcd CD database file
#
# Track frame offsets:
#	150
#	14834
#	31090
#	46536
#	62895
#	75418
#	89817
#	103716
#	116017
#	130989
#	148225
#	165745
#	180410
#	196572
#	211185
#
# Disc length: 2982 seconds
#
# Revision: 0
# Processed by: cddbd v1.5.2PL0 Copyright (c) Steve Scherf et al.
# Submitted via: CDex 1.51
#
DISCID=c80ba40f
DTITLE=DJ Maluco - DJ Maluco
DYEAR=2007
DGENRE=Country
TTITLE0=DJ Maluco - Eu Mudei
TTITLE1=DJ Maluco - Vida Boa
TTITLE2=DJ Maluco - Te Amar ou Te Perder
TTITLE3=DJ Maluco - Moudura
TTITLE4=DJ Maluco - Separação
TTITLE5=DJ Maluco - Dança do Arrocha
TTITLE6=DJ Maluco - Maravilha
TTITLE7=DJ Maluco - Cigana
TTITLE8=DJ Maluco - Tarde de Mais
TTITLE9=DJ Maluco - Não Tem Lua
TTITLE10=DJ Maluco - Paixão é Pouco
TTITLE11=DJ Maluco - Fuja de Mim
TTITLE12=DJ Maluco - Volta Pra Mim
TTITLE13=DJ Maluco - Quero Você
TTITLE14=DJ Maluco - Paulada na Chaninha
EXTD=YEAR: 2007
EXTT0=
EXTT1=
EXTT2=
EXTT3=
EXTT4=
EXTT5=
EXTT6=
EXTT7=
EXTT8=
EXTT9=
EXTT10=
EXTT11=
EXTT12=
EXTT13=
EXTT14=
PLAYORDER=
